<svg width="24" height="24" viewBox="0 0 24 24" fill="none" xmlns="http://www.w3.org/2000/svg">
<g clip-path="url(#clip0_1341_38)">
<path d="M15.2303 7.5L16.2647 7.5C17.0455 8.68343 17.5 10.1011 17.5 11.625C17.5 13.1489 17.0455 14.5666 16.2647 15.75L16.1174 15.75C15.3111 15.75 14.5835 16.1958 14.0859 16.8303C13.3127 17.8162 12.3383 18.6366 11.2245 19.2298C10.5023 19.6144 9.87571 20.1857 9.57185 20.9454C9.35924 21.4769 9.25 22.0441 9.25 22.6166V23.25C9.25 23.6642 8.91421 24 8.5 24C7.25736 24 6.25 22.9926 6.25 21.75C6.25 20.5984 6.50956 19.5074 6.97337 18.5323C7.23896 17.974 6.86638 17.25 6.24809 17.25L3.12227 17.25C2.09564 17.25 1.1767 16.556 1.06801 15.5351C1.02306 15.1129 1 14.6841 1 14.25C1 11.4024 1.99188 8.78642 3.649 6.72878C4.0366 6.24749 4.63581 6 5.25377 6L9.26975 6C9.75342 6 10.2339 6.07798 10.6928 6.23093L13.8072 7.26908C14.2661 7.42203 14.7466 7.5 15.2303 7.5Z" fill="white"/>
<path d="M21.1685 16.0229C21.7052 14.6611 22 13.1775 22 11.625C22 10.4049 21.8179 9.22738 21.4794 8.11805C21.2201 7.26802 20.3958 6.75 19.5071 6.75L18.5993 6.75C18.1538 6.75 17.8786 7.24827 18.0758 7.6478C18.6675 8.84708 19 10.1972 19 11.625C19 13.3332 18.5241 14.9302 17.6977 16.2907C17.4527 16.6941 17.726 17.25 18.1979 17.25H19.2506C20.0827 17.25 20.8635 16.797 21.1685 16.0229Z" fill="white"/>
</g>
<defs>
<clipPath id="clip0_1341_38">
<rect width="24" height="24" fill="white"/>
</clipPath>
</defs>
</svg>
