<svg width="42" height="42" viewBox="0 0 42 42" fill="none" xmlns="http://www.w3.org/2000/svg">
<rect x="0.5" y="0.5" width="41" height="41" rx="7.5" fill="#0F0F0F"/>
<rect x="0.5" y="0.5" width="41" height="41" rx="7.5" stroke="#262626"/>
<path d="M16.3035 19.4688C17.0091 19.4688 17.6457 19.0786 18.0811 18.5235C18.7576 17.6609 19.6102 16.943 20.5848 16.4239C21.2167 16.0874 21.765 15.5875 22.0309 14.9228C22.2169 14.4577 22.3125 13.9614 22.3125 13.4605V12.9062C22.3125 12.5438 22.6063 12.25 22.9688 12.25C24.0561 12.25 24.9375 13.1314 24.9375 14.2188C24.9375 15.2264 24.7104 16.1811 24.3045 17.0342C24.0722 17.5228 24.3982 18.1562 24.9392 18.1562M24.9392 18.1562H27.6743C28.5726 18.1562 29.3766 18.7635 29.4717 19.6568C29.5111 20.0262 29.5312 20.4014 29.5312 20.7812C29.5312 23.2729 28.6634 25.5619 27.2134 27.3623C26.8742 27.7834 26.3499 28 25.8092 28H22.2952C21.872 28 21.4516 27.9318 21.0501 27.7979L18.3249 26.8896C17.9234 26.7557 17.503 26.6875 17.0798 26.6875H15.6662M24.9392 18.1562H22.9688M15.6662 26.6875C15.7386 26.8665 15.8175 27.0422 15.9025 27.2144C16.0749 27.564 15.8342 28 15.4443 28H14.65C13.8724 28 13.1512 27.5467 12.9242 26.803C12.6281 25.8323 12.4688 24.8019 12.4688 23.7344C12.4688 22.376 12.7267 21.0778 13.1963 19.8862C13.4632 19.2089 14.1464 18.8125 14.8744 18.8125H15.7956C16.2085 18.8125 16.4476 19.2989 16.2333 19.6518C15.5101 20.8423 15.0938 22.2397 15.0938 23.7344C15.0938 24.7787 15.297 25.7755 15.6662 26.6875Z" stroke="white" stroke-width="2" stroke-linecap="round" stroke-linejoin="round"/>
</svg>
