<svg width="25" height="24" viewBox="0 0 25 24" fill="none" xmlns="http://www.w3.org/2000/svg">
<path d="M7.53963 18.5C7.11239 18.5 6.71465 18.2635 6.55831 17.8684C6.22211 17.0187 6.03747 16.0933 6.03747 15.125C6.03747 13.3759 6.63996 11.7667 7.64995 10.491C7.8018 10.2993 8.02441 10.1821 8.25341 10.094C8.72919 9.91091 9.14939 9.57968 9.47296 9.16967C10.251 8.18384 11.2315 7.3634 12.3523 6.77021C13.079 6.38563 13.7095 5.81428 14.0153 5.05464C14.2292 4.5231 14.3392 3.95587 14.3392 3.38338V2.75C14.3392 2.33579 14.6771 2 15.0939 2C16.3443 2 17.358 3.00736 17.358 4.25C17.358 5.40163 17.0968 6.49263 16.6301 7.46771C16.3628 8.02604 16.7377 8.75 17.3599 8.75H20.5053C21.5384 8.75 22.4631 9.44399 22.5724 10.4649C22.6177 10.8871 22.6409 11.3158 22.6409 11.75C22.6409 14.5976 21.6428 17.2136 19.9753 19.2712C19.5852 19.7525 18.9823 20 18.3604 20H14.3193C13.8326 20 13.3491 19.922 12.8874 19.7691L9.75339 18.7309C9.29166 18.578 8.80815 18.5 8.32144 18.5H7.53963Z" fill="white"/>
<path d="M2.34598 10.7271C1.80593 12.0889 1.50928 13.5725 1.50928 15.125C1.50928 16.3451 1.6925 17.5226 2.0331 18.632C2.29408 19.482 3.1235 20 4.01778 20H4.93126C5.37957 20 5.65647 19.5017 5.4581 19.1022C4.86263 17.9029 4.52807 16.5528 4.52807 15.125C4.52807 13.4168 5.00694 11.8198 5.83854 10.4593C6.08507 10.0559 5.81009 9.5 5.33522 9.5H4.27586C3.43862 9.5 2.65295 9.95303 2.34598 10.7271Z" fill="white"/>
</svg>
