<svg width="24" height="24" viewBox="0 0 24 24" fill="none" xmlns="http://www.w3.org/2000/svg">
<path d="M7.49281 18.528C7.06823 18.528 6.67296 18.2996 6.51759 17.9179C6.18349 17.0972 6 16.2033 6 15.2681C6 13.5786 6.59874 12.0243 7.60244 10.7921C7.75335 10.6069 7.97456 10.4937 8.20214 10.4086C8.67496 10.2318 9.09254 9.91183 9.4141 9.51579C10.1873 8.56358 11.1617 7.77111 12.2755 7.19815C12.9977 6.82668 13.6243 6.27481 13.9281 5.54107C14.1408 5.02765 14.25 4.47976 14.25 3.92679V3.315C14.25 2.91491 14.5858 2.59058 15 2.59058C16.2426 2.59058 17.25 3.56359 17.25 4.76386C17.25 5.87623 16.9904 6.93003 16.5266 7.87186C16.261 8.41116 16.6336 9.11043 17.2519 9.11043H20.3777C21.4044 9.11043 22.3233 9.78077 22.432 10.7668C22.4769 11.1747 22.5 11.5888 22.5 12.0081C22.5 14.7587 21.5081 17.2854 19.851 19.2729C19.4634 19.7378 18.8642 19.9769 18.2462 19.9769H14.2302C13.7466 19.9769 13.2661 19.9015 12.8072 19.7538L9.69278 18.7511C9.23393 18.6033 8.75342 18.528 8.26975 18.528H7.49281Z" fill="white"/>
<path d="M2.33149 11.0201C1.79481 12.3355 1.5 13.7685 1.5 15.2681C1.5 16.4466 1.68208 17.584 2.02056 18.6555C2.27991 19.4765 3.10418 19.9769 3.99289 19.9769H4.90067C5.3462 19.9769 5.62137 19.4956 5.42423 19.1097C4.83248 17.9513 4.5 16.6472 4.5 15.2681C4.5 13.6181 4.97588 12.0756 5.8023 10.7614C6.0473 10.3718 5.77404 9.83486 5.30212 9.83486H4.24936C3.41733 9.83486 2.63655 10.2725 2.33149 11.0201Z" fill="white"/>
</svg>
